<svg xmlns="http://www.w3.org/2000/svg" width="200" height="200" viewBox="0 0 200 200">
  <defs>
    <linearGradient id="bg" x1="0%" y1="0%" x2="100%" y2="100%">
      <stop offset="0%" style="stop-color:#5865F2;stop-opacity:1" />
      <stop offset="100%" style="stop-color:#4752C4;stop-opacity:1" />
    </linearGradient>
  </defs>
  <rect width="200" height="200" rx="40" fill="url(#bg)"/>
  <g fill="white">
    <!-- Chat bubble icon -->
    <path d="M50 70 C50 55 62 45 80 45 L120 45 C138 45 150 55 150 70 L150 110 C150 125 138 135 120 135 L90 135 L70 155 L70 135 L80 135 C62 135 50 125 50 110 Z" opacity="0.9"/>
    <!-- Lines representing text -->
    <rect x="70" y="65" width="60" height="8" rx="4" opacity="0.6"/>
    <rect x="70" y="85" width="45" height="8" rx="4" opacity="0.6"/>
    <rect x="70" y="105" width="55" height="8" rx="4" opacity="0.6"/>
  </g>
</svg>
